<?xml version="1.0" encoding="iso-8859-1"?>
<!-- Uploaded to: SVG Repo, www.svgrepo.com, Generator: SVG Repo Mixer Tools -->
<svg height="800px" width="800px" version="1.1" id="Layer_1" xmlns="http://www.w3.org/2000/svg" xmlns:xlink="http://www.w3.org/1999/xlink" 
	 viewBox="0 0 512.001 512.001" xml:space="preserve">
<g>
	<path style="fill:#EEBF00;" d="M129.325,252.406c-17.052,12.284-34.69,24.986-34.69,44.997v18.047
		c0,8.467,7.796,14.156,15.078,14.156h66.235c7.594,0,13.768-6.764,13.768-15.078c0-8.207-6.174-14.884-13.768-14.884h-50.043
		v-2.242c0-6.066,11.05-13.861,21.734-21.401c18.171-12.82,40.78-28.776,40.78-55.998c0-25.675-19.919-45.037-46.334-45.037
		c-25.245,0-44.286,17.284-44.286,40.202c0,12.484,7.696,16.931,14.896,16.931c9.893,0,15.805-7.284,15.805-14.325
		c0-3.126,0-12.64,13.211-12.64c15.361,0,15.805,13.686,15.805,15.247C157.513,232.103,143.821,241.965,129.325,252.406z"/>
	<path style="fill:#EEBF00;" d="M236.05,183.799l-46.572,91.849c-1.252,2.203-1.885,4.766-1.885,7.623
		c0,8.16,6.081,14.314,14.144,14.314h37.948v17.865c0,8.07,6.644,14.156,15.453,14.156c8.666,0,15.453-6.218,15.453-14.156v-17.865
		h0.921c7.83,0,13.962-6.702,13.962-15.259c0-8.588-6.002-15.065-13.962-15.065h-0.921v-26.615c0-7.952-6.641-13.95-15.453-13.95
		c-2.89,0-5.548,0.647-7.814,1.795l16.495-32.567c0.112-0.227,0.219-0.456,0.315-0.69c0.849-2.085,1.246-3.97,1.246-5.928
		c0-8.45-8.048-14.338-15.271-14.338C244.058,174.967,238.793,178.292,236.05,183.799z M239.687,267.26h-11.998l11.998-23.692
		V267.26z"/>
</g>
<path style="fill:#424EDE;" d="M493.263,122.885l-132.422-26.34c-7.893-2.299-16.762-0.341-22.982,5.881
	c-1.576,1.575-2.861,3.328-3.888,5.183c-0.051,0.092-0.112,0.18-0.163,0.273c-0.239,0.447-0.448,0.914-0.661,1.379
	c-0.118,0.256-0.248,0.504-0.355,0.762c-0.121,0.295-0.219,0.607-0.33,0.908c-0.413,1.126-0.769,2.282-1.008,3.495l-26.745,134.452
	c-2.509,12.605,5.678,24.854,18.283,27.363c1.533,0.304,3.061,0.451,4.563,0.451c10.878,0,20.597-7.662,22.8-18.736l16.665-83.779
	c13.59,24.803,20.819,52.755,20.819,81.823c0,94.096-76.553,170.649-170.649,170.649S46.541,350.096,46.541,256
	S123.093,85.352,217.189,85.352c12.853,0,23.27-10.419,23.27-23.27s-10.417-23.27-23.27-23.27C97.433,38.811,0,136.242,0,256
	s97.433,217.189,217.189,217.189c119.76,0,217.189-97.431,217.189-217.189c0-36.34-8.869-71.317-25.576-102.464l75.383,14.994
	c12.602,2.509,24.856-5.68,27.364-18.284C514.054,137.643,505.871,125.392,493.263,122.885z"/>
</svg>